<?xml version="1.0" encoding="utf-8" ?><svg xmlns="http://www.w3.org/2000/svg" xmlns:xlink="http://www.w3.org/1999/xlink" width="1024" height="1024" viewBox="0 0 1024 1024"><path fill="#291D69" d="M587.379 376.549C604.43 375.395 605.86 386.826 605.402 400.919C604.987 413.699 605.12 426.642 605.147 439.437L605.232 477.509C605.247 484.019 605.518 492.185 605.113 498.548C604.761 504.383 603.616 510.142 601.713 515.668C597.113 528.607 587.182 538.378 574.936 544.279C562.924 550.067 548.932 548.997 535.901 549.003L500.519 548.993L466.179 549.024C460.163 549.03 452.081 549.267 446.312 548.776C440.648 548.287 435.076 547.032 429.748 545.046C415.435 539.762 407.213 529.721 400.96 516.278C396.044 504.506 389.673 467.965 417.863 475.46C423.888 477.062 425.424 488.301 425.627 494.239C426.656 524.368 446.499 520.565 468.735 520.518L505.785 520.464C514.672 520.442 523.559 520.488 532.445 520.601C546.193 520.807 568.37 523.352 574.296 507.083C577.18 499.443 576.993 490.947 576.962 482.873C576.887 463.32 576.984 443.725 576.76 424.172C576.635 413.218 576.05 402.185 576.534 391.232C576.908 382.76 579.262 379.032 587.379 376.549Z"/><path fill="#291D69" d="M277.439 618.701C292.185 617.217 300.424 623.286 310.542 632.878L310.619 619.547C317.584 619.903 323.419 619.885 330.406 619.772C329.904 630.995 330.101 643.652 330.09 654.938L330.06 711.285C323.683 710.967 316.873 711.058 310.447 711.036C310.509 706.517 310.395 702.284 310.26 697.776C308.998 699.187 307.705 700.767 306.468 702.218C301.114 707.479 294.209 710.876 286.774 711.909C261.838 715.203 240.7 699.187 237.415 674.165C233.6 645.102 247.466 622.501 277.439 618.701ZM287.12 693.436C292.112 693.177 299.027 689.002 302.159 685.324C318.043 666.67 308.007 635.163 280.411 636.818C273.205 638.001 266.951 640.13 262.703 646.67C250.393 665.622 260.713 696.832 287.12 693.436Z"/><path fill="#291D69" d="M685.836 620.667C741.138 612.59 755.181 700.889 697.557 711.463C672.778 712.736 652.457 701.76 648.516 675.354C644.464 648.194 657.21 624.738 685.836 620.667ZM693.569 700.431C703.211 698.51 708.943 695.855 714.967 687.5C729.175 667.795 717.899 627.779 688.907 632.189C648.387 638.135 654.046 702.241 693.569 700.431Z"/><path fill="#8842F1" d="M588.641 317.678C599.552 316.477 612.427 321.209 620.391 328.574C630.293 337.731 639.685 347.452 649.203 357.034C659.988 367.891 671.454 378.431 681.126 390.279C688.62 398.179 681.261 411.24 671.761 412.709C662.192 414.188 647.205 396.1 641.009 389.856L607.002 355.669C589.805 338.71 578.302 351.012 565.464 364.077L544.357 385.488C539.043 390.85 531.074 400.325 523.489 401.842C512.898 403.96 501.963 387.972 510.018 379.245C521.19 367.213 533.24 355.683 544.735 343.999C560.216 328.264 566.214 320.324 588.641 317.678Z"/><path fill="#8842F1" d="M536.213 409.056C536.7 409.031 537.187 409.013 537.674 409.001C542.188 408.906 546.136 410.304 549.326 413.595C551.856 416.159 553.248 419.632 553.191 423.233C553.007 432.056 542.423 439.294 536.471 445.181C522.994 458.508 509.77 472.056 496.336 485.425C489.672 492.056 483.529 497.218 473.463 497.046C468.968 496.983 464.579 495.669 460.789 493.251C455.693 490.05 448.74 482.69 444.103 478.31C433.112 467.929 422.582 457.047 411.958 446.302C407.014 441.11 399.592 435.973 399.171 428.289C398.934 423.976 400.4 419.659 403.411 416.54C406.088 413.747 409.833 412.234 413.699 412.384C416.949 412.499 419.93 413.746 422.543 415.64C427.647 419.396 431.925 424.247 436.293 428.829C448.592 441.732 461.602 453.984 473.689 467.087L505.853 434.858C514.096 426.504 525.396 412.974 536.213 409.056Z"/><path fill="#291D69" d="M433.967 587.33L454.379 587.481C454.199 602.043 454.16 616.605 454.262 631.167C454.34 639.382 454.807 651.073 454.071 659.029C461.632 649.205 469.575 639.759 477.385 630.14C479.852 627.102 482.262 624.044 484.941 621.187L508.983 621.152C498.6 634.421 482.319 652.208 470.986 665.127C478.298 673.94 485.744 682.641 493.319 691.228C498.706 697.9 504.862 704.591 510.595 711.022C502.902 711.018 494.731 711.144 487.088 710.788C481.383 705.338 459.094 678.19 454.494 671.417C454.37 684.641 454.365 697.866 454.48 711.09C447.691 711.17 440.902 711.133 434.115 710.978C433.703 697.996 434.022 683.464 434.004 670.329L433.967 587.33Z"/><path fill="#291D69" d="M866.925 621.405C867.284 623.137 842.742 702.521 840.176 710.955L825.235 710.935C821.573 695.376 816.472 679.816 812.169 664.421C810.056 656.864 806.536 646.53 805.643 638.848C799.608 661.413 789.589 688.872 784.779 710.953L769.31 710.951C762.139 684.084 753.9 658.505 746.344 631.87L743.713 621.766C747.991 621.637 752.272 621.605 756.552 621.672C763.347 645.559 769.564 673.277 777.343 696.333C780.678 681.855 786.161 664.985 790.239 650.545C792.202 643.596 796.602 627.6 798.984 621.743L812.698 621.537C820.365 645.219 826.421 672.155 833.517 696.286C840.792 673.105 847.463 645.176 853.916 621.4L866.925 621.405Z"/><path fill="#291D69" d="M380.373 618.7C399.958 618.309 413.637 628.134 415.716 648.018L396.915 647.955C393.599 641.517 391.295 637.64 383.337 635.854C379.472 634.986 371.353 635.507 368.946 639.315C360.366 651.451 380.199 656.961 389.809 658.78C414.385 663.433 426.359 681.785 409.249 703.372C403.432 710.712 390.424 712.39 380.673 712.482C361.006 710.588 349.673 702.853 345.255 683.104C351.89 682.919 359.117 683.084 365.798 683.119C367.159 685.681 367.985 687.8 370.053 689.993C376.52 696.847 388.965 697.38 395.529 690.403C396.616 689.248 397.858 686.724 397.48 685.087C395.778 677.657 385.405 675.456 379.1 673.511C370.42 670.981 361.972 668.479 354.609 663.044C344.598 655.654 345.027 638.814 352.423 629.754C359.022 621.67 370.506 619.586 380.373 618.7Z"/><path fill="#291D69" d="M156.009 590.204L242.314 590.068L242.262 608.513C231.723 608.316 220.327 608.585 209.73 608.635C209.366 630.914 209.71 653.99 209.635 676.375C209.736 687.927 209.773 699.48 209.745 711.033L187.99 710.96L188.024 608.825C177.344 608.758 166.664 608.801 155.986 608.956L156.009 590.204Z"/><path fill="#291D69" d="M570.264 591.243C576.743 591.149 582.873 591.449 589.498 591.211L589.452 602.855C584.991 602.531 577.639 602.741 573.014 602.746L538.964 602.972L539.053 645.692C549.961 646.48 567.144 646.019 578.547 646.019L578.488 657.393C566.473 656.566 551.531 657.549 538.929 657.041L539.053 664.125L538.735 710.948C534.43 710.8 529.23 710.469 525.017 710.869C525.452 671.268 525.1 631.114 525.084 591.472C538.736 591.62 556.846 591.875 570.264 591.243Z"/><path fill="#291D69" d="M609.484 589.635C614.173 589.878 617.951 589.76 622.612 589.6C621.862 619.833 623.1 650.592 622.535 680.89C622.466 684.626 622.842 695.485 625.229 698.189C628.888 700.07 635.05 699.554 639.358 699.522C639.426 703.487 639.444 707.024 639.299 710.983C611.696 710.437 609.514 708.957 609.608 680.156C609.631 673.069 609.533 665.049 609.521 657.906L609.484 589.635Z"/></svg>